<svg xmlns="http://www.w3.org/2000/svg" xml:space="preserve" style="fill-rule:evenodd;clip-rule:evenodd;stroke-linejoin:round;stroke-miterlimit:2" viewBox="0 0 186 86"><path d="M431.131 75.544c5.35 0 9.1-2.5 9.1-9.45 0-4.75-1.6-7.5-6.2-10.6-3.8-2.55-4.9-4.25-4.9-6.7 0-2.5.6-4 1.95-4 1.5 0 2.4 1.95 1.8 7.1 3.45.1 6.8.4 6.8.4.9-8.45-1.9-12.95-8.5-12.95-5.4 0-9.15 2.65-9.15 9.1 0 4.5 1.55 7.7 6.05 10.9 4.15 2.95 5 4.6 5 6.9 0 2.9-.65 3.85-1.9 3.85-1.75 0-2.45-2.35-2-7.6-4.25-.05-7-.15-7-.15-.8 8.75 1.85 13.2 8.95 13.2ZM457.615 75.66s1.733.1 6.366-.166c0 0 .534-8.234 1.9-24 0 0-2.2 0-4.833-.134 0 0-.033 4.634-.567 19.634-.4-2.867-1.2-8.8-2.233-17.667 0 0-1.533-.133-4.1-.1 0 0-.367 2.233-2.333 15.9 0 0-.267-5.467-.5-17.1l-4.9.133s.8 7.5 1.833 21.834c0 0 1.367-.067 5.867.2 0 0 .433-3.6 2.033-14.8.333 3.5.833 8.9 1.467 16.266ZM470.881 74.694c5 .066 9.234.2 9.234.2 0-2.767.066-4.2.066-4.2-2.9-.067-4.833-.2-4.833-.2-.067-1.734-.1-3.367-.133-4.867 2.4 0 4.233.033 4.233.033-.033-2.466-.033-4.233-.033-4.233-2.534.067-4 .033-4.267.033-.067-3.366-.033-5.4-.033-5.4 2.233-.066 4.966-.1 4.966-.1-.066-2.6-.033-4.433-.033-4.433-6.733.1-9.433.133-9.433.133.2 13.434.266 23.034.266 23.034ZM489.748 71.527s-.167-8.233-.2-16.267c2.033-.3 2.9 1.934 2.9 8.167 0 7.433-1 8.233-2.7 8.1Zm-4.667 3.4c1.267.2 2.467.3 3.534.3 5.766 0 8.7-3 8.7-11.5 0-8.467-2.367-12.367-8.8-12.367-1.034 0-2.167.1-3.434.334 0 0 .067 11.366 0 23.233ZM511.215 75.544c5.35 0 9.1-2.5 9.1-9.45 0-4.75-1.6-7.5-6.2-10.6-3.8-2.55-4.9-4.25-4.9-6.7 0-2.5.6-4 1.95-4 1.5 0 2.4 1.95 1.8 7.1 3.45.1 6.8.4 6.8.4.9-8.45-1.9-12.95-8.5-12.95-5.4 0-9.15 2.65-9.15 9.1 0 4.5 1.55 7.7 6.05 10.9 4.15 2.95 5 4.6 5 6.9 0 2.9-.65 3.85-1.9 3.85-1.75 0-2.45-2.35-2-7.6-4.25-.05-7-.15-7-.15-.8 8.75 1.85 13.2 8.95 13.2ZM527.365 74.694c5 .066 9.233.2 9.233.2 0-2.767.067-4.2.067-4.2-2.9-.067-4.834-.2-4.834-.2-.066-1.734-.1-3.367-.133-4.867 2.4 0 4.233.033 4.233.033-.033-2.466-.033-4.233-.033-4.233-2.533.067-4 .033-4.267.033-.066-3.366-.033-5.4-.033-5.4 2.233-.066 4.967-.1 4.967-.1-.067-2.6-.034-4.433-.034-4.433-6.733.1-9.433.133-9.433.133.2 13.434.267 23.034.267 23.034ZM541.831 74.694c1.267.166 2.434.266 3.5.266 5.3 0 8.434-1.833 8.434-6.6 0-2.933-1.334-4.9-3.567-5.733 1.867-.733 3.133-2.5 3.133-5 0-4.233-2.133-6.433-7.133-6.433-1.333 0-2.9.166-4.633.5.233 12.2.266 23 .266 23Zm4.434-3.167-.1-6.833c2.1 0 3.1 1.233 3.1 3.566 0 2.6-1.134 3.367-3 3.267Zm-.134-16.767c2.1-.166 2.967 1 2.967 3.3 0 2.234-.967 3.334-2.967 3.267V54.76Z" style="fill:#fff;fill-rule:nonzero" transform="translate(-590.225 -55.052) scale(1.40052)"/><path d="M425.249 101.899a9.823 9.823 0 0 0-2.009 1.029c-1.655 1.03-3.274 2.133-4.781 3.347l-.552 1.36c-.478 1.288-1.103 2.428-1.692 3.568-.404.772-.883 1.397-1.434 2.096a4.033 4.033 0 0 1-1.729 1.361c-.184.037-.441.074-.699.037-.625-.037-.993-.405-1.029-1.03 0-.331 0-.625.147-.919.294-.552.515-1.03.846-1.582.993-1.581 2.206-2.795 3.641-3.972.478-.441.993-.809 1.544-1.214.699-1.875 1.545-4.707 1.545-5.81-.478.257-.772.588-1.177.919a72.397 72.397 0 0 1-2.574 2.133c-.809.589-.92.625-1.913.92-.11 0-.147 0-.184-.037l-.515-.184c-.478-.478-.514-1.03-.404-1.582.147-.625.331-1.213.588-1.838.111-.258.258-.442.442-.479.257.037.367.148.367.405-.036.257-.073.515-.183.772-.111.552-.295 1.03-.405 1.582-.037.147-.074.294.184.551.919-.294 1.655-.809 2.354-1.434l3.052-2.648.405-.331h.662l.184.147c.184.294.22.625.147.993-.294 1.03-.809 3.016-.993 4.119-.037.147-.111.295 0 .478.257.111.368-.11.515-.22l3.199-2.133c.699-.442 1.435-.846 2.281-1.104.208-.069.403-.11.601-.111.378-.689.798-1.339 1.421-1.838l.625.074.515-.515h.699c.552.257.699.625.809 1.103.147.625 0 1.177-.147 2.096.736.111.736.111 3.568-.956l.293.24c.14-.489.329-.974.589-1.453l.331-.368c.184 0 .294 0 .331.037l.331.514c-.699.773-.699 1.729-.956 2.648-.11.405-.11.773-.221 1.177 0 .258-.036.405.221.552.257 0 .441-.147.625-.257.92-.626 1.618-1.508 2.317-2.391.589-.772 1.104-1.581 1.655-2.427.147-.258.294-.552.699-.662.11.11.294.147.478.257.184.589.11 1.14-.037 1.729a11.76 11.76 0 0 0-.551 2.243c-.111.772-.147.772.147 1.582l.294.22h.221c.735-.257 1.324-.699 1.875-1.177.699-.625 1.324-1.287 1.95-1.912.257-.184.404-.368.588-.515.167-.037.306-.018.412.052.073-.343.163-.71.287-1.155.11-.405.22-.736.515-1.067h.662c.11.184.147.368.257.515-.478.588-.478.588-.588 1.287-.111.552-.147.294-.037 1.03.883-1.103 2.17-2.979 3.236-3.751.258-.184.589-.368.957-.552.257-.11.551-.074.882.074.294.183.442.441.405.772-.111.037-.147.11-.258.147-.147-.11-.294-.074-.478-.184-.073 0-.147 0-.184.037-1.213.809-2.537 2.758-3.42 3.935-.478.625-.809 1.287-1.214 1.986l-.441.883c-.478.184-.846.037-1.103-.515.11-.405.073-.846.184-1.251.073-.556.129-.991.192-1.395a49.419 49.419 0 0 1-2.657 2.683c-.257.257-.588.404-.882.662-.405.257-.809.294-1.251.257-.515 0-.919-.221-1.213-.625-.295-.441-.515-.883-.515-1.434 0-.552 0-1.141.037-1.729-.479.588-.92 1.214-1.472 1.765-.698.773-1.36 1.435-2.353 1.729-.405 0-.699-.147-.883-.405-.257-.331-.405-.662-.368-1.029.051-.625.117-1.242.241-1.851a.906.906 0 0 1-.204.085l-1.214.552c-1.213.478-1.36.515-2.721.515-.258.184-.405.515-.589.809-.441.699-.846.993-1.544 1.434-.478.294-1.03.478-1.655.331-.478-.184-.736-.551-.92-1.03-.036-.993.295-1.802.699-2.574l.097-.183Zm-13.079 11.915c.404.147.662 0 .919-.184a7.733 7.733 0 0 0 1.287-1.397c.993-1.324 1.618-2.795 2.317-4.267.037-.036.037-.183.037-.367a37.294 37.294 0 0 0-1.729 1.655c-.772.772-1.471 1.581-2.059 2.501a5.94 5.94 0 0 0-.772 1.618c-.037.147 0 .257 0 .441Zm16.439-11.806c.294-.551.515-1.36.478-1.986 0-.22-.11-.331-.331-.367-.294.257-.368.625-.515.956 0 .404-.147.919.037 1.25.147.037.258.111.331.147Zm-1.419-1.353c-.094.034-.126.066-.126.066a13.182 13.182 0 0 0-1.324 2.575 5.285 5.285 0 0 0-.331.993c-.036.184-.11.404.148.588.404.11.735-.147 1.029-.331.736-.441 1.177-.883 1.655-1.728-.735-.479-.882-1.361-.993-2.097-.022-.022-.044-.044-.058-.066Zm.033-.044h.025c.037 0 .037-.037.037-.074-.024.025-.049.049-.062.074Zm52.756 1.619-1.83 1.617c-.258.258-.552.368-.846.515-.368.184-.809.221-1.287.111-.552-.111-.92-.662-1.03-1.251-.037-.552-.037-1.03.147-1.581.11-.184.147-.295 0-.552-.552.405-.846.956-1.287 1.398-.442.404-.846.882-1.251 1.287-.478.441-.882.956-1.434 1.287-.147.037-.258.074-.294.074-.515-.037-.773-.295-.736-.736 0-.184.037-.368.074-.625.588-1.582 1.25-3.016 2.39-4.303.147-.184.331-.331.515-.515.478-.441 1.03-.736 1.802-.478.184.147.368.294.625.551.258 0 .295-.11.405-.257a14.16 14.16 0 0 1 1.03-1.14c.11 0 .257-.037.404-.037.331.11.552.368.442.662a2.912 2.912 0 0 1-.331.846c-.295.699-.589 1.398-.92 2.06-.257.551-.331 1.14-.478 1.728-.037.258 0 .258.258.589.404.036.662-.111.919-.368.699-.515.919-.699 1.618-1.177.405-.294.736-.589 1.067-.846.142 0 .256.023.345.066.223-.659.484-1.294.758-1.905.405-.184 1.103-.11 1.214.147 0 .111-.037.258-.074.442a70.91 70.91 0 0 0-.846 2.574c.405.405 2.281-1.876 3.31-2.538l2.501-2.059.736-.478c.368-.111.662-.074.846.184.294.294.294.625.184.956-.037.257-.148.404-.258.662-.331.846-.699 1.581-1.03 2.427-.184.552-.294.993-.441 1.545-.11.551.147 1.213.699 1.103a9.174 9.174 0 0 0 2.354-1.103c.551-.331 1.397-.846 1.949-1.251.257-.147.699-.735 1.03-.772.331.037.331.257.294.588-.037.111-.074.184-.111.184l-3.383 2.317a7.885 7.885 0 0 1-1.361.699c-.404.147-.846.184-1.287.147-.441-.037-.809-.257-1.067-.699-.367-.551-.036-1.655.147-2.243.148-.919.479-1.729.883-2.574l.258-.662-.111-.111c-.735.589-1.912 1.582-2.648 2.207-.919.735-1.802 1.508-2.721 2.28l-.662.478c-.368.294-.773.368-1.214.258-.257-.111-.405-.331-.405-.662 0-.258 0-.368.037-.626.032-.147.066-.294.102-.44Zm-8.818 1.617c.184-.11.294-.147.294-.147 1.287-1.213 2.464-2.427 3.494-3.788 0 0 .037-.073.074-.257l-.368-.662c-.258.036-.405.11-.515.147-.478.257-.809.588-1.103.993a11.801 11.801 0 0 0-1.655 2.979c-.111.257-.111.441-.221.735Zm35.398-1.858a29.896 29.896 0 0 1-3.622 2.778c-.405.257-.809.368-1.251.551a1.325 1.325 0 0 1-.993-.036c-.404-.147-.698-.405-.845-.846-.037-.147-.037-.331-.148-.442-.036-1.213.405-2.243.883-3.236.11-.221.221-.405.405-.552.11-.11.257-.073.404-.11.258.405.515.552.405.809-.258.552-.515.956-.662 1.508a5.01 5.01 0 0 0-.294 1.361c-.074.257 0 .515.22.772.331.147.368.074.662-.073.478-.258.883-.479 1.287-.736a175.154 175.154 0 0 0 3.531-2.611.23.23 0 0 1 .254.084 20.92 20.92 0 0 1 .776-1.96c.404-.184 1.103-.11 1.214.147 0 .111-.037.258-.074.442a70.91 70.91 0 0 0-.846 2.574c.405.405 2.28-1.876 3.31-2.538l2.501-2.059.735-.478c.368-.111.662-.074.846.184.295.294.295.625.184.956-.037.257-.147.404-.257.662-.331.846-.699 1.581-1.03 2.427-.184.552-.294.993-.441 1.545-.111.551.147 1.213.698 1.103a9.158 9.158 0 0 0 2.354-1.103c.552-.331 1.398-.846 1.949-1.251.258-.147.699-.735 1.03-.772.109.012.182.044.23.093l.028-.056c.846-1.14 1.875-1.949 3.199-2.428.699-.257 1.067-.147 1.766.405.147.478 0 1.03.478 1.434l-.442 1.729-.551 1.618c.184.147.22.037.331-.073.882-.589 1.728-1.214 2.611-1.766.588-.404 1.214-.809 1.986-.993.405.111.662.258.699.736-.846.184-1.508.625-2.207 1.066-1.434.92-2.795 1.986-4.156 3.053l-1.14 2.464c-.846 1.765-1.692 3.457-2.758 5.075-.699 1.03-1.398 2.06-2.317 2.943-.442.404-.956.772-1.545.956-.147.037-.294.11-.478.11-1.14.11-1.655-.588-1.655-1.434 0-.552.037-1.03.294-1.508.368-.846.846-1.655 1.435-2.427a24.716 24.716 0 0 1 3.861-4.009c.846-.699 1.729-1.398 2.575-2.133.257-.184.478-.368.735-.626.405-.993.736-1.949 1.067-2.905.036-.11 0-.256 0-.367-.306.019-.448.264-.625.441-.736.551-1.435.956-2.428 1.103-.037 0-.147-.037-.331-.074-.745-.291-1.034-.755-.865-1.39l-2.996 2.052a7.885 7.885 0 0 1-1.361.699c-.405.147-.846.184-1.287.147-.442-.037-.809-.257-1.067-.699-.368-.551-.037-1.655.147-2.243.147-.919.478-1.729.883-2.574l.257-.662-.11-.111c-.736.589-1.912 1.582-2.648 2.207-.919.735-1.802 1.508-2.722 2.28l-.662.478c-.367.294-.772.368-1.213.258-.258-.111-.405-.331-.405-.662 0-.258 0-.368.037-.626.049-.229.104-.457.165-.681Zm17.268.046c.096-.021.171-.007.073-.137a.301.301 0 0 0-.073.137Zm-3.347.599c.184 0 .368.036.515 0l.735-.331c.993-.552 1.692-1.398 2.464-2.17.111-.147.221-.368.074-.625-.11 0-.221-.074-.331-.037a6.078 6.078 0 0 0-3.089 2.317c-.148.257-.368.441-.368.846Zm1.068 5.113c-.274.017-.45.227-.627.403-.404.258-.662.589-.993.883a22.7 22.7 0 0 0-3.457 3.567c-.552.699-1.103 1.435-1.434 2.317a5.143 5.143 0 0 0-.331 1.141c-.074.257.036.478.331.588.551 0 .993-.257 1.397-.662.478-.405.883-.809 1.214-1.25 1.581-2.06 2.832-4.34 3.898-6.731.033-.097.008-.166.002-.256Zm26.763-5.926a.252.252 0 0 1-.101.04c-.404.111-.809.111-1.25.221-1.214.257-2.428.662-3.715.331-.184-.037-.331-.074-.515.037-.036.11-.036.184 0 .257.331 1.471.184 2.832-.11 4.193-.294 1.876-.846 3.567-1.581 5.222l-.295.626-.331.331c-.11.036-.294.036-.551.036l-.552-.441c0-.147-.037-.221-.037-.331-.11-.919.074-1.802.221-2.685a58.356 58.356 0 0 1 1.471-5.811c.257-.735.368-1.434.625-2.17l.368-.993a53.13 53.13 0 0 1 1.876-5.148c.147-.295.294-.626.478-.92.11-.184.294-.257.441-.404.258.147.368.22.478.331.184.551.037.845-.22 1.176-.111.258-.295.331-.331.589l-1.729 4.781c0 .11.037.184.037.331 1.692.368 3.273-.11 5.002-.294l.367.368.008.019c.084-.457.191-.918.36-1.527.11-.405.221-.736.515-1.067h.662c.11.184.147.368.257.515-.478.588-.478.588-.588 1.287-.11.552-.147.294-.037 1.03.883-1.103 2.17-2.979 3.237-3.751.257-.184.588-.368.956-.552.257-.11.552-.074.883.074.294.183.441.441.404.772-.11.037-.147.11-.257.147-.147-.11-.295-.074-.478-.184-.074 0-.148 0-.184.037-1.214.809-2.538 2.758-3.421 3.935-.478.625-.809 1.287-1.213 1.986l-.442.883c-.478.184-.846.037-1.103-.515.11-.405.074-.846.184-1.251.08-.61.139-1.073.211-1.511Zm-7.787 8.72.073.073c.809-1.802 1.398-4.45 1.398-6.068-.552 1.287-.773 2.464-1.104 3.678-.183.735-.404 1.471-.367 2.317Zm19.757-8.379a30.232 30.232 0 0 1-3.428 2.605c-.405.257-.809.368-1.25.551a1.325 1.325 0 0 1-.993-.036c-.405-.147-.699-.405-.846-.846-.037-.147-.037-.331-.147-.442-.037-1.213.404-2.243.882-3.236.111-.221.221-.405.405-.552.11-.11.257-.073.404-.11.258.405.515.552.405.809-.258.552-.515.956-.662 1.508a5.01 5.01 0 0 0-.294 1.361c-.074.257 0 .515.22.772.331.147.368.074.662-.073.478-.258.883-.479 1.288-.736a178.022 178.022 0 0 0 3.53-2.611.23.23 0 0 1 .2.032 5.103 5.103 0 0 1 2.08-2.276c.258-.147.626-.22.92-.331.331-.073.625 0 .882.184.479.294.589.699.331 1.214-.147.331-.367.515-.625.772a8.444 8.444 0 0 1-2.427 1.251c-.11 0-.184.073-.294.11-2.207 5.149 4.339 1.287 6.399-.772.229-.146.352-.197.488-.142.223-.663.487-1.303.762-1.918.405-.184 1.104-.11 1.214.147 0 .111-.037.258-.073.442a67.21 67.21 0 0 0-.846 2.574c.404.405 2.28-1.876 3.31-2.538l2.501-2.059.735-.478c.368-.111.662-.074.846.184.294.294.294.625.184.956-.037.257-.147.404-.258.662-.331.846-.698 1.581-1.029 2.427-.184.552-.295.993-.442 1.545-.11.551.147 1.213.699 1.103a9.174 9.174 0 0 0 2.354-1.103c.552-.331 1.397-.846 1.949-1.251.258-.147.699-.735 1.03-.772.114.013.188.047.236.1a5.408 5.408 0 0 1 1.566-1.755c.331-.257.699-.441 1.25-.257l.589.551c.404-.294.515-.735.809-1.066.294-.405.515-.809.809-1.214l.699-1.14.735-1.14c.295-.405.515-.809.773-1.214.184-.368.441-.772.699-1.177.183-.404.404-.735.662-1.14.257-.404.404-.772.662-1.177.183-.441.367-.882.625-1.324.147-.404.294-.846.588-1.14.405-.11.589.147.699.405.037.073.037.147 0 .184a24.676 24.676 0 0 1-1.14 2.795c-.552 1.36-1.14 2.684-1.692 4.008-1.066 2.648-1.618 5.37-2.059 8.165a49.001 49.001 0 0 0-.442 4.671c-.037.552.074 1.14.074 1.765 0 .074-.074.147-.184.221-.294-.11-.552-.184-.736-.478 0-.037-.073-.147-.11-.258-.147-.993-.184-2.022-.147-3.015.11-1.435.147-2.796.331-4.156.257-1.435.515-2.759.919-4.119.035-.105.037-.274.037-.479-.11 0-.221.111-.331.295-.883 1.324-1.765 2.684-2.685 3.972-.551.772-1.14 1.434-1.728 2.17a2.84 2.84 0 0 1-.625.478c-.442.294-.883.22-1.288-.184a1.674 1.674 0 0 1-.147-1.251 9.99 9.99 0 0 1 .343-1.054l-2.991 2.047a7.813 7.813 0 0 1-1.361.699 3.024 3.024 0 0 1-1.287.147c-.441-.037-.809-.257-1.066-.699-.368-.551-.037-1.655.147-2.243.147-.919.478-1.729.882-2.574l.258-.662-.11-.111c-.736.589-1.913 1.582-2.648 2.207-.92.735-1.803 1.508-2.722 2.28l-.662.478c-.368.294-.772.368-1.214.258-.257-.111-.404-.331-.404-.662 0-.258 0-.368.037-.626.028-.132.058-.264.09-.395-2.065 1.521-3.655 3.264-6.343 3.264-2.144-.165-1.95-1.839-1.463-3.377Zm3.817-2.802c-.735.148-1.25.552-1.692 1.104-.11.11-.257.22-.11.478a5.189 5.189 0 0 0 1.581-.993c.148-.147.331-.258.221-.589Zm23.516-1.691c.05-.002.157-.016.059-.147l-.059.147Zm-5.936 6.142c.699-.479 1.397-1.214 2.096-2.207l.478-.772c0-.331.111-.626-.184-.92-.588.147-.882.589-1.213 1.03-.773.993-1.14 1.949-1.177 2.869Zm-112.687-4.193.294.331c.442 1.287.074 2.243-.846 2.979-.735.588-1.618.883-2.537 1.14-.846.184-1.729.331-2.648.515l-.294.552-.515 1.581c-.111.294-.221.552-.515.809-.111 0-.258.037-.405 0-.404-.11-.588-.331-.588-.662.11-.257.11-.515.257-.772.625-1.471.92-3.09 1.398-4.671 1.213-4.119 2.501-8.091 4.376-11.806.405-.846.809-1.618 1.214-2.39.147-.294.294-.589.552-.773.147 0 .257 0 .294.037.184.111.294.294.294.552-2.207 4.56-3.825 9.305-5.259 14.306-.037.037 0 .111.073.221.258-.184.442-.404.626-.662.441-.441.993-.883 1.618-1.324.257-.184.552-.294.883-.404.551-.258 1.14-.111 1.728.441Zm-4.928 3.862c.441-.111.699-.111.956-.221a9.106 9.106 0 0 0 2.427-1.103c.405-.295.626-.662.883-1.104.11-.331.11-.662-.037-.919-.184-.147-.367-.184-.625-.074a3.252 3.252 0 0 0-.699.442c-1.14.772-2.022 1.765-2.905 2.979Zm34.534-5.333c.736.257.92.441.92 1.14 0 .368-.074.699-.258.956-.404.625-.919 1.14-1.655 1.398l-1.618.441c-.147.147-.11.368-.074.625.442 2.464.92 4.818 1.619 7.209l.11.404c-.258.258-.368.221-.625.184-.258-.11-.442-.331-.552-.662l-.588-2.059c-.184-.846-.368-1.619-.515-2.465a43.045 43.045 0 0 1-.368-2.684c-.699.772-1.103 1.655-1.434 2.574h-.662c-.037-.184-.148-.331-.111-.478.037-.405.147-.736.258-1.067a483.285 483.285 0 0 1 1.802-6.951c.699-2.611 1.581-5.075 2.464-7.613.11-.257.147-.551.257-.845.405-.442.478-.442.883.11 0 .404-.147.662-.257 1.066-.442 1.361-.92 2.685-1.361 4.12-.846 2.537-1.471 5.075-2.17 7.686 0 .037.037.074.037.184.184.11.184-.074.294-.184.625-.846 1.361-1.545 2.133-2.28.441-.405.919-.699 1.471-.809Zm.037.625c-1.067.552-1.802 1.434-2.501 2.317-.037.037 0 .11.037.221.294-.111.662-.074.956-.184.846-.294 1.434-.883 1.729-1.729.036-.184.036-.368-.221-.625Zm3.678-.515c-.147.037-.295-.11-.405-.368.184-.478.405-.956.809-1.287.405-.404.773-.735 1.324-.846.184.111.478.368.442.625-.258.405-.773.515-1.104.92a14.02 14.02 0 0 1-1.066.956Zm53.916 0c-.147.037-.294-.11-.405-.368.184-.478.405-.956.809-1.287.405-.404.773-.735 1.324-.846.184.111.478.368.442.625-.258.405-.773.515-1.104.92a14.02 14.02 0 0 1-1.066.956Z" style="fill:#fff" transform="translate(-411 -32)"/></svg>