<?xml version="1.0" encoding="UTF-8" standalone="no"?>
<svg
   width="100%"
   height="100%"
   viewBox="0 0 186 86"
   version="1.1"
   xml:space="preserve"
   style="fill-rule:evenodd;clip-rule:evenodd;stroke-linejoin:round;stroke-miterlimit:2;"
   id="svg411"
   xmlns="http://www.w3.org/2000/svg"
   xmlns:svg="http://www.w3.org/2000/svg"><defs
   id="defs415" />
    <g
   transform="matrix(1,0,0,1,-411,-32)"
   id="g409">
        <g
   transform="matrix(1,0,0,1,-10.3403,0)"
   id="g407">
            <g
   transform="matrix(1.40052,0,0,1.40052,-168.885,-23.0521)"
   id="g401">
                <path
   d="M431.131,75.544C436.481,75.544 440.231,73.044 440.231,66.094C440.231,61.344 438.631,58.594 434.031,55.494C430.231,52.944 429.131,51.244 429.131,48.794C429.131,46.294 429.731,44.794 431.081,44.794C432.581,44.794 433.481,46.744 432.881,51.894C436.331,51.994 439.681,52.294 439.681,52.294C440.581,43.844 437.781,39.344 431.181,39.344C425.781,39.344 422.031,41.994 422.031,48.444C422.031,52.944 423.581,56.144 428.081,59.344C432.231,62.294 433.081,63.944 433.081,66.244C433.081,69.144 432.431,70.094 431.181,70.094C429.431,70.094 428.731,67.744 429.181,62.494C424.931,62.444 422.181,62.344 422.181,62.344C421.381,71.094 424.031,75.544 431.131,75.544Z"
   style="fill:white;fill-rule:nonzero;"
   id="path387" />
                <path
   d="M457.615,75.66C457.615,75.66 459.348,75.76 463.981,75.494C463.981,75.494 464.515,67.26 465.881,51.494C465.881,51.494 463.681,51.494 461.048,51.36C461.048,51.36 461.015,55.994 460.481,70.994C460.081,68.127 459.281,62.194 458.248,53.327C458.248,53.327 456.715,53.194 454.148,53.227C454.148,53.227 453.781,55.46 451.815,69.127C451.815,69.127 451.548,63.66 451.315,52.027L446.415,52.16C446.415,52.16 447.215,59.66 448.248,73.994C448.248,73.994 449.615,73.927 454.115,74.194C454.115,74.194 454.548,70.594 456.148,59.394C456.481,62.894 456.981,68.294 457.615,75.66Z"
   style="fill:white;fill-rule:nonzero;"
   id="path389" />
                <path
   d="M470.881,74.694C475.881,74.76 480.115,74.894 480.115,74.894C480.115,72.127 480.181,70.694 480.181,70.694C477.281,70.627 475.348,70.494 475.348,70.494C475.281,68.76 475.248,67.127 475.215,65.627C477.615,65.627 479.448,65.66 479.448,65.66C479.415,63.194 479.415,61.427 479.415,61.427C476.881,61.494 475.415,61.46 475.148,61.46C475.081,58.094 475.115,56.06 475.115,56.06C477.348,55.994 480.081,55.96 480.081,55.96C480.015,53.36 480.048,51.527 480.048,51.527C473.315,51.627 470.615,51.66 470.615,51.66C470.815,65.094 470.881,74.694 470.881,74.694Z"
   style="fill:white;fill-rule:nonzero;"
   id="path391" />
                <path
   d="M489.748,71.527C489.748,71.527 489.581,63.294 489.548,55.26C491.581,54.96 492.448,57.194 492.448,63.427C492.448,70.86 491.448,71.66 489.748,71.527ZM485.081,74.927C486.348,75.127 487.548,75.227 488.615,75.227C494.381,75.227 497.315,72.227 497.315,63.727C497.315,55.26 494.948,51.36 488.515,51.36C487.481,51.36 486.348,51.46 485.081,51.694C485.081,51.694 485.148,63.06 485.081,74.927Z"
   style="fill:white;fill-rule:nonzero;"
   id="path393" />
                <path
   d="M511.215,75.544C516.565,75.544 520.315,73.044 520.315,66.094C520.315,61.344 518.715,58.594 514.115,55.494C510.315,52.944 509.215,51.244 509.215,48.794C509.215,46.294 509.815,44.794 511.165,44.794C512.665,44.794 513.565,46.744 512.965,51.894C516.415,51.994 519.765,52.294 519.765,52.294C520.665,43.844 517.865,39.344 511.265,39.344C505.865,39.344 502.115,41.994 502.115,48.444C502.115,52.944 503.665,56.144 508.165,59.344C512.315,62.294 513.165,63.944 513.165,66.244C513.165,69.144 512.515,70.094 511.265,70.094C509.515,70.094 508.815,67.744 509.265,62.494C505.015,62.444 502.265,62.344 502.265,62.344C501.465,71.094 504.115,75.544 511.215,75.544Z"
   style="fill:white;fill-rule:nonzero;"
   id="path395" />
                <path
   d="M527.365,74.694C532.365,74.76 536.598,74.894 536.598,74.894C536.598,72.127 536.665,70.694 536.665,70.694C533.765,70.627 531.831,70.494 531.831,70.494C531.765,68.76 531.731,67.127 531.698,65.627C534.098,65.627 535.931,65.66 535.931,65.66C535.898,63.194 535.898,61.427 535.898,61.427C533.365,61.494 531.898,61.46 531.631,61.46C531.565,58.094 531.598,56.06 531.598,56.06C533.831,55.994 536.565,55.96 536.565,55.96C536.498,53.36 536.531,51.527 536.531,51.527C529.798,51.627 527.098,51.66 527.098,51.66C527.298,65.094 527.365,74.694 527.365,74.694Z"
   style="fill:white;fill-rule:nonzero;"
   id="path397" />
                <path
   d="M541.831,74.694C543.098,74.86 544.265,74.96 545.331,74.96C550.631,74.96 553.765,73.127 553.765,68.36C553.765,65.427 552.431,63.46 550.198,62.627C552.065,61.894 553.331,60.127 553.331,57.627C553.331,53.394 551.198,51.194 546.198,51.194C544.865,51.194 543.298,51.36 541.565,51.694C541.798,63.894 541.831,74.694 541.831,74.694ZM546.265,71.527L546.165,64.694C548.265,64.694 549.265,65.927 549.265,68.26C549.265,70.86 548.131,71.627 546.265,71.527ZM546.131,54.76C548.231,54.594 549.098,55.76 549.098,58.06C549.098,60.294 548.131,61.394 546.131,61.327L546.131,54.76Z"
   style="fill:white;fill-rule:nonzero;"
   id="path399" />
            </g>
            <g
   transform="matrix(1,0,0,1,10.3403,0)"
   id="g405">
                <path
   d="M425.249,101.899C424.537,102.158 423.878,102.512 423.24,102.928C421.585,103.958 419.966,105.061 418.459,106.275L417.907,107.635C417.429,108.923 416.804,110.063 416.215,111.203C415.811,111.975 415.332,112.6 414.781,113.299C414.339,113.888 413.825,114.329 413.052,114.66C412.868,114.697 412.611,114.734 412.353,114.697C411.728,114.66 411.36,114.292 411.324,113.667C411.324,113.336 411.324,113.042 411.471,112.748C411.765,112.196 411.986,111.718 412.317,111.166C413.31,109.585 414.523,108.371 415.958,107.194C416.436,106.753 416.951,106.385 417.502,105.98C418.201,104.105 419.047,101.273 419.047,100.17C418.569,100.427 418.275,100.758 417.87,101.089C417.024,101.825 416.178,102.523 415.296,103.222C414.487,103.811 414.376,103.847 413.383,104.142C413.273,104.142 413.236,104.142 413.199,104.105L412.684,103.921C412.206,103.443 412.17,102.891 412.28,102.339C412.427,101.714 412.611,101.126 412.868,100.501C412.979,100.243 413.126,100.059 413.31,100.022C413.567,100.059 413.677,100.17 413.677,100.427C413.641,100.684 413.604,100.942 413.494,101.199C413.383,101.751 413.199,102.229 413.089,102.781C413.052,102.928 413.015,103.075 413.273,103.332C414.192,103.038 414.928,102.523 415.627,101.898L418.679,99.25L419.084,98.919L419.746,98.919L419.93,99.066C420.114,99.36 420.15,99.691 420.077,100.059C419.783,101.089 419.268,103.075 419.084,104.178C419.047,104.325 418.973,104.473 419.084,104.656C419.341,104.767 419.452,104.546 419.599,104.436L422.798,102.303C423.497,101.861 424.233,101.457 425.079,101.199C425.287,101.13 425.482,101.089 425.68,101.088C426.058,100.399 426.478,99.749 427.101,99.25L427.726,99.324L428.241,98.809L428.94,98.809C429.492,99.066 429.639,99.434 429.749,99.912C429.896,100.537 429.749,101.089 429.602,102.008C430.338,102.119 430.338,102.119 433.17,101.052L433.463,101.292C433.603,100.803 433.792,100.318 434.052,99.839L434.383,99.471C434.567,99.471 434.677,99.471 434.714,99.508L435.045,100.022C434.346,100.795 434.346,101.751 434.089,102.67C433.979,103.075 433.979,103.443 433.868,103.847C433.868,104.105 433.832,104.252 434.089,104.399C434.346,104.399 434.53,104.252 434.714,104.142C435.634,103.516 436.332,102.634 437.031,101.751C437.62,100.979 438.135,100.17 438.686,99.324C438.833,99.066 438.98,98.772 439.385,98.662C439.495,98.772 439.679,98.809 439.863,98.919C440.047,99.508 439.973,100.059 439.826,100.648C439.569,101.383 439.385,102.119 439.275,102.891C439.164,103.663 439.128,103.663 439.422,104.473L439.716,104.693L439.937,104.693C440.672,104.436 441.261,103.994 441.812,103.516C442.511,102.891 443.136,102.229 443.762,101.604C444.019,101.42 444.166,101.236 444.35,101.089C444.517,101.052 444.656,101.071 444.762,101.141C444.835,100.798 444.925,100.431 445.049,99.986C445.159,99.581 445.269,99.25 445.564,98.919L446.226,98.919C446.336,99.103 446.373,99.287 446.483,99.434C446.005,100.022 446.005,100.022 445.895,100.721C445.784,101.273 445.748,101.015 445.858,101.751C446.741,100.648 448.028,98.772 449.094,98C449.352,97.816 449.683,97.632 450.051,97.448C450.308,97.338 450.602,97.374 450.933,97.522C451.227,97.705 451.375,97.963 451.338,98.294C451.227,98.331 451.191,98.404 451.08,98.441C450.933,98.331 450.786,98.367 450.602,98.257C450.529,98.257 450.455,98.257 450.418,98.294C449.205,99.103 447.881,101.052 446.998,102.229C446.52,102.854 446.189,103.516 445.784,104.215L445.343,105.098C444.865,105.282 444.497,105.135 444.24,104.583C444.35,104.178 444.313,103.737 444.424,103.332C444.497,102.776 444.553,102.341 444.616,101.937C443.746,102.873 442.903,103.746 441.959,104.62C441.702,104.877 441.371,105.024 441.077,105.282C440.672,105.539 440.268,105.576 439.826,105.539C439.311,105.539 438.907,105.318 438.613,104.914C438.318,104.473 438.098,104.031 438.098,103.48C438.098,102.928 438.098,102.339 438.135,101.751C437.656,102.339 437.215,102.965 436.663,103.516C435.965,104.289 435.303,104.951 434.31,105.245C433.905,105.245 433.611,105.098 433.427,104.84C433.17,104.509 433.022,104.178 433.059,103.811C433.11,103.186 433.176,102.569 433.3,101.96C433.241,101.994 433.173,102.023 433.096,102.045L431.882,102.597C430.669,103.075 430.522,103.112 429.161,103.112C428.903,103.296 428.756,103.627 428.572,103.921C428.131,104.62 427.726,104.914 427.028,105.355C426.55,105.649 425.998,105.833 425.373,105.686C424.895,105.502 424.637,105.135 424.453,104.656C424.417,103.663 424.748,102.854 425.152,102.082C425.185,102.021 425.217,101.96 425.249,101.899ZM412.17,113.814C412.574,113.961 412.832,113.814 413.089,113.63C413.567,113.226 414.008,112.748 414.376,112.233C415.369,110.909 415.994,109.438 416.693,107.966C416.73,107.93 416.73,107.783 416.73,107.599C416.105,108.15 415.553,108.702 415.001,109.254C414.229,110.026 413.53,110.835 412.942,111.755C412.611,112.233 412.353,112.784 412.17,113.373C412.133,113.52 412.17,113.63 412.17,113.814ZM428.609,102.008C428.903,101.457 429.124,100.648 429.087,100.022C429.087,99.802 428.977,99.691 428.756,99.655C428.462,99.912 428.388,100.28 428.241,100.611C428.241,101.015 428.094,101.53 428.278,101.861C428.425,101.898 428.536,101.972 428.609,102.008ZM427.19,100.655C427.096,100.689 427.064,100.721 427.064,100.721C426.513,101.567 426.071,102.413 425.74,103.296C425.593,103.627 425.483,103.958 425.409,104.289C425.373,104.473 425.299,104.693 425.557,104.877C425.961,104.987 426.292,104.73 426.586,104.546C427.322,104.105 427.763,103.663 428.241,102.818C427.506,102.339 427.359,101.457 427.248,100.721C427.226,100.699 427.204,100.677 427.19,100.655ZM427.223,100.611L427.248,100.611C427.285,100.611 427.285,100.574 427.285,100.537C427.261,100.562 427.236,100.586 427.223,100.611ZM479.979,102.23L478.149,103.847C477.891,104.105 477.597,104.215 477.303,104.362C476.935,104.546 476.494,104.583 476.016,104.473C475.464,104.362 475.096,103.811 474.986,103.222C474.949,102.67 474.949,102.192 475.133,101.641C475.243,101.457 475.28,101.346 475.133,101.089C474.581,101.494 474.287,102.045 473.846,102.487C473.404,102.891 473,103.369 472.595,103.774C472.117,104.215 471.713,104.73 471.161,105.061C471.014,105.098 470.903,105.135 470.867,105.135C470.352,105.098 470.094,104.84 470.131,104.399C470.131,104.215 470.168,104.031 470.205,103.774C470.793,102.192 471.455,100.758 472.595,99.471C472.742,99.287 472.926,99.14 473.11,98.956C473.588,98.515 474.14,98.22 474.912,98.478C475.096,98.625 475.28,98.772 475.537,99.029C475.795,99.029 475.832,98.919 475.942,98.772C476.273,98.367 476.567,98.036 476.972,97.632C477.082,97.632 477.229,97.595 477.376,97.595C477.707,97.705 477.928,97.963 477.818,98.257C477.744,98.588 477.634,98.846 477.487,99.103C477.192,99.802 476.898,100.501 476.567,101.163C476.31,101.714 476.236,102.303 476.089,102.891C476.052,103.149 476.089,103.149 476.347,103.48C476.751,103.516 477.009,103.369 477.266,103.112C477.965,102.597 478.185,102.413 478.884,101.935C479.289,101.641 479.62,101.346 479.951,101.089C480.093,101.089 480.207,101.112 480.296,101.155C480.519,100.496 480.78,99.861 481.054,99.25C481.459,99.066 482.157,99.14 482.268,99.397C482.268,99.508 482.231,99.655 482.194,99.839C481.9,100.684 481.606,101.567 481.348,102.413C481.753,102.818 483.629,100.537 484.658,99.875L487.159,97.816L487.895,97.338C488.263,97.227 488.557,97.264 488.741,97.522C489.035,97.816 489.035,98.147 488.925,98.478C488.888,98.735 488.777,98.882 488.667,99.14C488.336,99.986 487.968,100.721 487.637,101.567C487.453,102.119 487.343,102.56 487.196,103.112C487.086,103.663 487.343,104.325 487.895,104.215C488.741,103.958 489.513,103.59 490.249,103.112C490.8,102.781 491.646,102.266 492.198,101.861C492.455,101.714 492.897,101.126 493.228,101.089C493.559,101.126 493.559,101.346 493.522,101.677C493.485,101.788 493.448,101.861 493.411,101.861L490.028,104.178C489.623,104.436 489.145,104.693 488.667,104.877C488.263,105.024 487.821,105.061 487.38,105.024C486.939,104.987 486.571,104.767 486.313,104.325C485.946,103.774 486.277,102.67 486.46,102.082C486.608,101.163 486.939,100.353 487.343,99.508L487.601,98.846L487.49,98.735C486.755,99.324 485.578,100.317 484.842,100.942C483.923,101.677 483.04,102.45 482.121,103.222L481.459,103.7C481.091,103.994 480.686,104.068 480.245,103.958C479.988,103.847 479.84,103.627 479.84,103.296C479.84,103.038 479.84,102.928 479.877,102.67C479.909,102.523 479.943,102.376 479.979,102.23ZM471.161,103.847C471.345,103.737 471.455,103.7 471.455,103.7C472.742,102.487 473.919,101.273 474.949,99.912C474.949,99.912 474.986,99.839 475.023,99.655L474.655,98.993C474.397,99.029 474.25,99.103 474.14,99.14C473.662,99.397 473.331,99.728 473.037,100.133C472.338,101.052 471.786,102.045 471.382,103.112C471.271,103.369 471.271,103.553 471.161,103.847ZM506.559,101.989C505.424,103.012 504.217,103.926 502.937,104.767C502.532,105.024 502.128,105.135 501.686,105.318C501.355,105.429 501.024,105.429 500.693,105.282C500.289,105.135 499.995,104.877 499.848,104.436C499.811,104.289 499.811,104.105 499.7,103.994C499.664,102.781 500.105,101.751 500.583,100.758C500.693,100.537 500.804,100.353 500.988,100.206C501.098,100.096 501.245,100.133 501.392,100.096C501.65,100.501 501.907,100.648 501.797,100.905C501.539,101.457 501.282,101.861 501.135,102.413C500.951,102.891 500.877,103.369 500.841,103.774C500.767,104.031 500.841,104.289 501.061,104.546C501.392,104.693 501.429,104.62 501.723,104.473C502.201,104.215 502.606,103.994 503.01,103.737C504.187,102.891 505.327,102.045 506.541,101.126C506.644,101.1 506.728,101.128 506.795,101.21C507.021,100.531 507.289,99.878 507.571,99.25C507.975,99.066 508.674,99.14 508.785,99.397C508.785,99.508 508.748,99.655 508.711,99.839C508.417,100.684 508.123,101.567 507.865,102.413C508.27,102.818 510.145,100.537 511.175,99.875L513.676,97.816L514.411,97.338C514.779,97.227 515.073,97.264 515.257,97.522C515.552,97.816 515.552,98.147 515.441,98.478C515.404,98.735 515.294,98.882 515.184,99.14C514.853,99.986 514.485,100.721 514.154,101.567C513.97,102.119 513.86,102.56 513.713,103.112C513.602,103.663 513.86,104.325 514.411,104.215C515.257,103.958 516.03,103.59 516.765,103.112C517.317,102.781 518.163,102.266 518.714,101.861C518.972,101.714 519.413,101.126 519.744,101.089C519.853,101.101 519.926,101.133 519.974,101.182L520.002,101.126C520.848,99.986 521.877,99.177 523.201,98.698C523.9,98.441 524.268,98.551 524.967,99.103C525.114,99.581 524.967,100.133 525.445,100.537L525.003,102.266L524.452,103.884C524.636,104.031 524.672,103.921 524.783,103.811C525.665,103.222 526.511,102.597 527.394,102.045C527.982,101.641 528.608,101.236 529.38,101.052C529.785,101.163 530.042,101.31 530.079,101.788C529.233,101.972 528.571,102.413 527.872,102.854C526.438,103.774 525.077,104.84 523.716,105.907L522.576,108.371C521.73,110.136 520.884,111.828 519.818,113.446C519.119,114.476 518.42,115.506 517.501,116.389C517.059,116.793 516.545,117.161 515.956,117.345C515.809,117.382 515.662,117.455 515.478,117.455C514.338,117.565 513.823,116.867 513.823,116.021C513.823,115.469 513.86,114.991 514.117,114.513C514.485,113.667 514.963,112.858 515.552,112.086C516.655,110.651 517.942,109.29 519.413,108.077C520.259,107.378 521.142,106.679 521.988,105.944C522.245,105.76 522.466,105.576 522.723,105.318C523.128,104.325 523.459,103.369 523.79,102.413C523.826,102.303 523.79,102.157 523.79,102.046C523.484,102.065 523.342,102.31 523.165,102.487C522.429,103.038 521.73,103.443 520.737,103.59C520.7,103.59 520.59,103.553 520.406,103.516C519.661,103.225 519.372,102.761 519.541,102.126L516.545,104.178C516.14,104.436 515.662,104.693 515.184,104.877C514.779,105.024 514.338,105.061 513.897,105.024C513.455,104.987 513.088,104.767 512.83,104.325C512.462,103.774 512.793,102.67 512.977,102.082C513.124,101.163 513.455,100.353 513.86,99.508L514.117,98.846L514.007,98.735C513.271,99.324 512.095,100.317 511.359,100.942C510.44,101.677 509.557,102.45 508.637,103.222L507.975,103.7C507.608,103.994 507.203,104.068 506.762,103.958C506.504,103.847 506.357,103.627 506.357,103.296C506.357,103.038 506.357,102.928 506.394,102.67C506.443,102.441 506.498,102.213 506.559,101.989ZM523.827,102.035C523.923,102.014 523.998,102.028 523.9,101.898C523.866,101.932 523.833,101.996 523.827,102.035ZM520.48,102.634C520.664,102.634 520.848,102.67 520.995,102.634L521.73,102.303C522.723,101.751 523.422,100.905 524.194,100.133C524.305,99.986 524.415,99.765 524.268,99.508C524.158,99.508 524.047,99.434 523.937,99.471C522.65,99.912 521.62,100.684 520.848,101.788C520.7,102.045 520.48,102.229 520.48,102.634ZM521.548,107.747C521.274,107.764 521.098,107.974 520.921,108.15C520.517,108.408 520.259,108.739 519.928,109.033C518.641,110.1 517.501,111.276 516.471,112.6C515.919,113.299 515.368,114.035 515.037,114.917C514.89,115.248 514.779,115.653 514.706,116.058C514.632,116.315 514.742,116.536 515.037,116.646C515.588,116.646 516.03,116.389 516.434,115.984C516.912,115.579 517.317,115.175 517.648,114.734C519.229,112.674 520.48,110.394 521.546,108.003C521.579,107.906 521.554,107.837 521.548,107.747ZM548.311,101.821C548.285,101.84 548.251,101.853 548.21,101.861C547.806,101.972 547.401,101.972 546.96,102.082C545.746,102.339 544.532,102.744 543.245,102.413C543.061,102.376 542.914,102.339 542.73,102.45C542.694,102.56 542.694,102.634 542.73,102.707C543.061,104.178 542.914,105.539 542.62,106.9C542.326,108.776 541.774,110.467 541.039,112.122L540.744,112.748L540.413,113.079C540.303,113.115 540.119,113.115 539.862,113.115L539.31,112.674C539.31,112.527 539.273,112.453 539.273,112.343C539.163,111.424 539.347,110.541 539.494,109.658C539.898,107.635 540.377,105.76 540.965,103.847C541.222,103.112 541.333,102.413 541.59,101.677L541.958,100.684C542.51,98.882 543.135,97.191 543.834,95.536C543.981,95.241 544.128,94.91 544.312,94.616C544.422,94.432 544.606,94.359 544.753,94.212C545.011,94.359 545.121,94.432 545.231,94.543C545.415,95.094 545.268,95.388 545.011,95.719C544.9,95.977 544.716,96.05 544.68,96.308L542.951,101.089C542.951,101.199 542.988,101.273 542.988,101.42C544.68,101.788 546.261,101.31 547.99,101.126L548.357,101.494C548.36,101.5 548.362,101.507 548.365,101.513C548.449,101.056 548.556,100.595 548.725,99.986C548.835,99.581 548.946,99.25 549.24,98.919L549.902,98.919C550.012,99.103 550.049,99.287 550.159,99.434C549.681,100.022 549.681,100.022 549.571,100.721C549.461,101.273 549.424,101.015 549.534,101.751C550.417,100.648 551.704,98.772 552.771,98C553.028,97.816 553.359,97.632 553.727,97.448C553.984,97.338 554.279,97.374 554.61,97.522C554.904,97.705 555.051,97.963 555.014,98.294C554.904,98.331 554.867,98.404 554.757,98.441C554.61,98.331 554.462,98.367 554.279,98.257C554.205,98.257 554.131,98.257 554.095,98.294C552.881,99.103 551.557,101.052 550.674,102.229C550.196,102.854 549.865,103.516 549.461,104.215L549.019,105.098C548.541,105.282 548.173,105.135 547.916,104.583C548.026,104.178 547.99,103.737 548.1,103.332C548.18,102.722 548.239,102.259 548.311,101.821ZM540.524,110.541L540.597,110.614C541.406,108.812 541.995,106.164 541.995,104.546C541.443,105.833 541.222,107.01 540.891,108.224C540.708,108.959 540.487,109.695 540.524,110.541ZM560.281,102.162C559.203,103.115 558.06,103.973 556.853,104.767C556.448,105.024 556.044,105.135 555.603,105.318C555.272,105.429 554.941,105.429 554.61,105.282C554.205,105.135 553.911,104.877 553.764,104.436C553.727,104.289 553.727,104.105 553.617,103.994C553.58,102.781 554.021,101.751 554.499,100.758C554.61,100.537 554.72,100.353 554.904,100.206C555.014,100.096 555.161,100.133 555.308,100.096C555.566,100.501 555.823,100.648 555.713,100.905C555.455,101.457 555.198,101.861 555.051,102.413C554.867,102.891 554.793,103.369 554.757,103.774C554.683,104.031 554.757,104.289 554.977,104.546C555.308,104.693 555.345,104.62 555.639,104.473C556.117,104.215 556.522,103.994 556.927,103.737C558.103,102.891 559.243,102.045 560.457,101.126C560.534,101.107 560.601,101.117 560.657,101.158C561.116,100.18 561.817,99.422 562.737,98.882C562.995,98.735 563.363,98.662 563.657,98.551C563.988,98.478 564.282,98.551 564.539,98.735C565.018,99.029 565.128,99.434 564.87,99.949C564.723,100.28 564.503,100.464 564.245,100.721C563.51,101.273 562.701,101.677 561.818,101.972C561.708,101.972 561.634,102.045 561.524,102.082C559.317,107.231 565.863,103.369 567.923,101.31C568.152,101.164 568.275,101.113 568.411,101.168C568.634,100.505 568.898,99.865 569.173,99.25C569.578,99.066 570.277,99.14 570.387,99.397C570.387,99.508 570.35,99.655 570.314,99.839C570.019,100.684 569.725,101.567 569.468,102.413C569.872,102.818 571.748,100.537 572.778,99.875L575.279,97.816L576.014,97.338C576.382,97.227 576.676,97.264 576.86,97.522C577.154,97.816 577.154,98.147 577.044,98.478C577.007,98.735 576.897,98.882 576.786,99.14C576.455,99.986 576.088,100.721 575.757,101.567C575.573,102.119 575.462,102.56 575.315,103.112C575.205,103.663 575.462,104.325 576.014,104.215C576.86,103.958 577.632,103.59 578.368,103.112C578.92,102.781 579.765,102.266 580.317,101.861C580.575,101.714 581.016,101.126 581.347,101.089C581.461,101.102 581.535,101.136 581.583,101.189C581.968,100.514 582.472,99.918 583.149,99.434C583.48,99.177 583.848,98.993 584.399,99.177L584.988,99.728C585.392,99.434 585.503,98.993 585.797,98.662C586.091,98.257 586.312,97.853 586.606,97.448L587.305,96.308L588.04,95.168C588.335,94.763 588.555,94.359 588.813,93.954C588.997,93.586 589.254,93.182 589.512,92.777C589.695,92.373 589.916,92.042 590.174,91.637C590.431,91.233 590.578,90.865 590.836,90.46C591.019,90.019 591.203,89.578 591.461,89.136C591.608,88.732 591.755,88.29 592.049,87.996C592.454,87.886 592.638,88.143 592.748,88.401C592.785,88.474 592.785,88.548 592.748,88.585C592.417,89.578 592.012,90.534 591.608,91.38C591.056,92.74 590.468,94.064 589.916,95.388C588.85,98.036 588.298,100.758 587.857,103.553C587.636,105.098 587.489,106.642 587.415,108.224C587.378,108.776 587.489,109.364 587.489,109.989C587.489,110.063 587.415,110.136 587.305,110.21C587.011,110.1 586.753,110.026 586.569,109.732C586.569,109.695 586.496,109.585 586.459,109.474C586.312,108.481 586.275,107.452 586.312,106.459C586.422,105.024 586.459,103.663 586.643,102.303C586.9,100.868 587.158,99.544 587.562,98.184C587.597,98.079 587.599,97.91 587.599,97.705C587.489,97.705 587.378,97.816 587.268,98C586.385,99.324 585.503,100.684 584.583,101.972C584.032,102.744 583.443,103.406 582.855,104.142C582.671,104.325 582.487,104.473 582.23,104.62C581.788,104.914 581.347,104.84 580.942,104.436C580.722,104.031 580.685,103.59 580.795,103.185C580.893,102.822 581.005,102.469 581.138,102.131L578.147,104.178C577.743,104.436 577.265,104.693 576.786,104.877C576.382,105.024 575.941,105.061 575.499,105.024C575.058,104.987 574.69,104.767 574.433,104.325C574.065,103.774 574.396,102.67 574.58,102.082C574.727,101.163 575.058,100.353 575.462,99.508L575.72,98.846L575.61,98.735C574.874,99.324 573.697,100.317 572.962,100.942C572.042,101.677 571.159,102.45 570.24,103.222L569.578,103.7C569.21,103.994 568.806,104.068 568.364,103.958C568.107,103.847 567.96,103.627 567.96,103.296C567.96,103.038 567.96,102.928 567.997,102.67C568.025,102.538 568.055,102.406 568.087,102.275C566.022,103.796 564.432,105.539 561.744,105.539C559.6,105.374 559.794,103.7 560.281,102.162ZM564.098,99.36C563.363,99.508 562.848,99.912 562.406,100.464C562.296,100.574 562.149,100.684 562.296,100.942C562.848,100.721 563.399,100.39 563.877,99.949C564.025,99.802 564.208,99.691 564.098,99.36ZM587.614,97.669C587.664,97.667 587.771,97.653 587.673,97.522L587.614,97.669ZM581.678,103.811C582.377,103.332 583.075,102.597 583.774,101.604L584.252,100.832C584.252,100.501 584.363,100.206 584.068,99.912C583.48,100.059 583.186,100.501 582.855,100.942C582.082,101.935 581.715,102.891 581.678,103.811ZM468.991,99.618L469.285,99.949C469.727,101.236 469.359,102.192 468.439,102.928C467.704,103.516 466.821,103.811 465.902,104.068C465.056,104.252 464.173,104.399 463.254,104.583L462.96,105.135L462.445,106.716C462.334,107.01 462.224,107.268 461.93,107.525C461.819,107.525 461.672,107.562 461.525,107.525C461.121,107.415 460.937,107.194 460.937,106.863C461.047,106.606 461.047,106.348 461.194,106.091C461.819,104.62 462.114,103.001 462.592,101.42C463.805,97.301 465.093,93.329 466.968,89.614C467.373,88.768 467.777,87.996 468.182,87.224C468.329,86.93 468.476,86.635 468.734,86.451C468.881,86.451 468.991,86.451 469.028,86.488C469.212,86.599 469.322,86.782 469.322,87.04C467.115,91.6 465.497,96.345 464.063,101.346C464.026,101.383 464.063,101.457 464.136,101.567C464.394,101.383 464.578,101.163 464.762,100.905C465.203,100.464 465.755,100.022 466.38,99.581C466.637,99.397 466.932,99.287 467.263,99.177C467.814,98.919 468.403,99.066 468.991,99.618ZM464.063,103.48C464.504,103.369 464.762,103.369 465.019,103.259C465.902,103.001 466.711,102.634 467.446,102.156C467.851,101.861 468.072,101.494 468.329,101.052C468.439,100.721 468.439,100.39 468.292,100.133C468.108,99.986 467.925,99.949 467.667,100.059C467.41,100.17 467.152,100.353 466.968,100.501C465.828,101.273 464.946,102.266 464.063,103.48ZM498.597,98.147C499.333,98.404 499.517,98.588 499.517,99.287C499.517,99.655 499.443,99.986 499.259,100.243C498.855,100.868 498.34,101.383 497.604,101.641L495.986,102.082C495.839,102.229 495.876,102.45 495.912,102.707C496.354,105.171 496.832,107.525 497.531,109.916L497.641,110.32C497.383,110.578 497.273,110.541 497.016,110.504C496.758,110.394 496.574,110.173 496.464,109.842L495.876,107.783C495.692,106.937 495.508,106.164 495.361,105.318C495.214,104.473 495.103,103.627 494.993,102.634C494.294,103.406 493.89,104.289 493.559,105.208L492.897,105.208C492.86,105.024 492.749,104.877 492.786,104.73C492.823,104.325 492.933,103.994 493.044,103.663C493.632,101.31 494.221,99.066 494.846,96.712C495.545,94.101 496.427,91.637 497.31,89.099C497.42,88.842 497.457,88.548 497.567,88.254C497.972,87.812 498.045,87.812 498.45,88.364C498.45,88.768 498.303,89.026 498.193,89.43C497.751,90.791 497.273,92.115 496.832,93.55C495.986,96.087 495.361,98.625 494.662,101.236C494.662,101.273 494.699,101.31 494.699,101.42C494.883,101.53 494.883,101.346 494.993,101.236C495.618,100.39 496.354,99.691 497.126,98.956C497.567,98.551 498.045,98.257 498.597,98.147ZM498.634,98.772C497.567,99.324 496.832,100.206 496.133,101.089C496.096,101.126 496.133,101.199 496.17,101.31C496.464,101.199 496.832,101.236 497.126,101.126C497.972,100.832 498.56,100.243 498.855,99.397C498.891,99.213 498.891,99.029 498.634,98.772ZM502.312,98.257C502.165,98.294 502.017,98.147 501.907,97.889C502.091,97.411 502.312,96.933 502.716,96.602C503.121,96.198 503.489,95.867 504.04,95.756C504.224,95.867 504.518,96.124 504.482,96.381C504.224,96.786 503.709,96.896 503.378,97.301C503.047,97.632 502.716,97.926 502.312,98.257ZM556.228,98.257C556.081,98.294 555.934,98.147 555.823,97.889C556.007,97.411 556.228,96.933 556.632,96.602C557.037,96.198 557.405,95.867 557.956,95.756C558.14,95.867 558.434,96.124 558.398,96.381C558.14,96.786 557.625,96.896 557.294,97.301C556.963,97.632 556.632,97.926 556.228,98.257Z"
   style="fill:white;"
   id="path403" />
            </g>
        </g>
    </g>
</svg>
